<mxfile host="Electron" agent="Mozilla/5.0 (Windows NT 10.0; Win64; x64) AppleWebKit/537.36 (KHTML, like Gecko) draw.io/26.2.2 Chrome/134.0.6998.178 Electron/35.1.2 Safari/537.36" version="26.2.2">
  <diagram name="PÃ¡gina-1" id="B3FKdtHm93B9rexC4VjD">
    <mxGraphModel dx="1412" dy="1994" grid="1" gridSize="10" guides="1" tooltips="1" connect="1" arrows="1" fold="1" page="1" pageScale="1" pageWidth="827" pageHeight="1169" math="0" shadow="0">
      <root>
        <mxCell id="0" />
        <mxCell id="1" parent="0" />
        <mxCell id="ruwKu6qkfZP39pcEH6fN-24" style="edgeStyle=orthogonalEdgeStyle;rounded=0;orthogonalLoop=1;jettySize=auto;html=1;endArrow=none;startFill=0;" parent="1" source="ruwKu6qkfZP39pcEH6fN-1" target="ruwKu6qkfZP39pcEH6fN-23" edge="1">
          <mxGeometry relative="1" as="geometry" />
        </mxCell>
        <mxCell id="ruwKu6qkfZP39pcEH6fN-25" value="I2C" style="edgeLabel;html=1;align=center;verticalAlign=middle;resizable=0;points=[];" parent="ruwKu6qkfZP39pcEH6fN-24" vertex="1" connectable="0">
          <mxGeometry x="0.0115" relative="1" as="geometry">
            <mxPoint as="offset" />
          </mxGeometry>
        </mxCell>
        <mxCell id="ruwKu6qkfZP39pcEH6fN-1" value="Microcontroller&lt;div&gt;(Portenta H7)&lt;/div&gt;" style="rounded=0;whiteSpace=wrap;html=1;" parent="1" vertex="1">
          <mxGeometry x="280" y="160" width="90" height="50" as="geometry" />
        </mxCell>
        <mxCell id="ruwKu6qkfZP39pcEH6fN-11" style="edgeStyle=orthogonalEdgeStyle;rounded=0;orthogonalLoop=1;jettySize=auto;html=1;entryX=0.5;entryY=1;entryDx=0;entryDy=0;endArrow=none;startFill=0;exitX=0;exitY=0.5;exitDx=0;exitDy=0;" parent="1" source="VuKC-oQQ4Q0P8t1NDrwS-15" target="ruwKu6qkfZP39pcEH6fN-1" edge="1">
          <mxGeometry relative="1" as="geometry">
            <mxPoint x="460" y="230" as="sourcePoint" />
          </mxGeometry>
        </mxCell>
        <mxCell id="ruwKu6qkfZP39pcEH6fN-12" value="I2C" style="edgeLabel;html=1;align=center;verticalAlign=middle;resizable=0;points=[];" parent="ruwKu6qkfZP39pcEH6fN-11" vertex="1" connectable="0">
          <mxGeometry x="0.2245" y="-1" relative="1" as="geometry">
            <mxPoint x="25" as="offset" />
          </mxGeometry>
        </mxCell>
        <mxCell id="ruwKu6qkfZP39pcEH6fN-14" style="edgeStyle=orthogonalEdgeStyle;rounded=0;orthogonalLoop=1;jettySize=auto;html=1;entryX=0;entryY=0.5;entryDx=0;entryDy=0;endArrow=none;startFill=0;" parent="1" source="ruwKu6qkfZP39pcEH6fN-13" target="ruwKu6qkfZP39pcEH6fN-1" edge="1">
          <mxGeometry relative="1" as="geometry" />
        </mxCell>
        <mxCell id="ruwKu6qkfZP39pcEH6fN-23" value="Lora Module (Portenta Vision Shield - Lora)" style="rounded=0;whiteSpace=wrap;html=1;" parent="1" vertex="1">
          <mxGeometry x="275" y="40" width="100" height="60" as="geometry" />
        </mxCell>
        <mxCell id="VuKC-oQQ4Q0P8t1NDrwS-11" style="edgeStyle=orthogonalEdgeStyle;rounded=0;orthogonalLoop=1;jettySize=auto;html=1;" parent="1" source="VuKC-oQQ4Q0P8t1NDrwS-1" target="VuKC-oQQ4Q0P8t1NDrwS-9" edge="1">
          <mxGeometry relative="1" as="geometry" />
        </mxCell>
        <mxCell id="VuKC-oQQ4Q0P8t1NDrwS-12" value="MQTT" style="edgeLabel;html=1;align=center;verticalAlign=middle;resizable=0;points=[];" parent="VuKC-oQQ4Q0P8t1NDrwS-11" vertex="1" connectable="0">
          <mxGeometry x="-0.4588" y="-3" relative="1" as="geometry">
            <mxPoint x="7" y="-3" as="offset" />
          </mxGeometry>
        </mxCell>
        <mxCell id="VuKC-oQQ4Q0P8t1NDrwS-1" value="TTN" style="ellipse;shape=cloud;whiteSpace=wrap;html=1;" parent="1" vertex="1">
          <mxGeometry x="460" y="26" width="120" height="80" as="geometry" />
        </mxCell>
        <mxCell id="VuKC-oQQ4Q0P8t1NDrwS-2" style="edgeStyle=orthogonalEdgeStyle;rounded=0;orthogonalLoop=1;jettySize=auto;html=1;entryX=0.16;entryY=0.55;entryDx=0;entryDy=0;entryPerimeter=0;exitX=1;exitY=0.5;exitDx=0;exitDy=0;" parent="1" source="ruwKu6qkfZP39pcEH6fN-23" target="VuKC-oQQ4Q0P8t1NDrwS-1" edge="1">
          <mxGeometry relative="1" as="geometry" />
        </mxCell>
        <mxCell id="VuKC-oQQ4Q0P8t1NDrwS-3" value="LORA" style="edgeLabel;html=1;align=center;verticalAlign=middle;resizable=0;points=[];" parent="VuKC-oQQ4Q0P8t1NDrwS-2" vertex="1" connectable="0">
          <mxGeometry x="-0.2196" y="-1" relative="1" as="geometry">
            <mxPoint y="-1" as="offset" />
          </mxGeometry>
        </mxCell>
        <mxCell id="VuKC-oQQ4Q0P8t1NDrwS-6" value="My Server" style="swimlane;whiteSpace=wrap;html=1;startSize=23;" parent="1" vertex="1">
          <mxGeometry x="790" y="-9" width="240" height="290" as="geometry">
            <mxRectangle x="530" y="320" width="140" height="30" as="alternateBounds" />
          </mxGeometry>
        </mxCell>
        <mxCell id="VuKC-oQQ4Q0P8t1NDrwS-8" style="edgeStyle=orthogonalEdgeStyle;rounded=0;orthogonalLoop=1;jettySize=auto;html=1;entryX=0.5;entryY=0;entryDx=0;entryDy=0;" parent="VuKC-oQQ4Q0P8t1NDrwS-6" source="VuKC-oQQ4Q0P8t1NDrwS-5" target="VuKC-oQQ4Q0P8t1NDrwS-7" edge="1">
          <mxGeometry relative="1" as="geometry" />
        </mxCell>
        <mxCell id="VuKC-oQQ4Q0P8t1NDrwS-5" value="influxDB" style="shape=datastore;whiteSpace=wrap;html=1;" parent="VuKC-oQQ4Q0P8t1NDrwS-6" vertex="1">
          <mxGeometry x="90" y="130" width="60" height="70" as="geometry" />
        </mxCell>
        <mxCell id="VuKC-oQQ4Q0P8t1NDrwS-7" value="Grafana" style="rounded=0;whiteSpace=wrap;html=1;" parent="VuKC-oQQ4Q0P8t1NDrwS-6" vertex="1">
          <mxGeometry x="60" y="230" width="120" height="50" as="geometry" />
        </mxCell>
        <mxCell id="VuKC-oQQ4Q0P8t1NDrwS-10" style="edgeStyle=orthogonalEdgeStyle;rounded=0;orthogonalLoop=1;jettySize=auto;html=1;" parent="VuKC-oQQ4Q0P8t1NDrwS-6" source="VuKC-oQQ4Q0P8t1NDrwS-9" target="VuKC-oQQ4Q0P8t1NDrwS-5" edge="1">
          <mxGeometry relative="1" as="geometry" />
        </mxCell>
        <mxCell id="VuKC-oQQ4Q0P8t1NDrwS-9" value="Telegraf" style="rounded=0;whiteSpace=wrap;html=1;" parent="VuKC-oQQ4Q0P8t1NDrwS-6" vertex="1">
          <mxGeometry x="60" y="50" width="120" height="50" as="geometry" />
        </mxCell>
        <mxCell id="VuKC-oQQ4Q0P8t1NDrwS-15" value="Sensor Group" style="swimlane;whiteSpace=wrap;html=1;" parent="1" vertex="1">
          <mxGeometry x="450" y="120" width="310" height="230" as="geometry">
            <mxRectangle x="180" y="330" width="120" height="30" as="alternateBounds" />
          </mxGeometry>
        </mxCell>
        <mxCell id="ruwKu6qkfZP39pcEH6fN-5" value="Accelerometer Sensor&lt;div&gt;(LIS3DHTR)&lt;/div&gt;" style="rounded=0;whiteSpace=wrap;html=1;" parent="VuKC-oQQ4Q0P8t1NDrwS-15" vertex="1">
          <mxGeometry x="175" y="130" width="100" height="50" as="geometry" />
        </mxCell>
        <mxCell id="ruwKu6qkfZP39pcEH6fN-3" value="Humidity Sensor&lt;div&gt;(AHT20)&lt;/div&gt;" style="rounded=0;whiteSpace=wrap;html=1;" parent="VuKC-oQQ4Q0P8t1NDrwS-15" vertex="1">
          <mxGeometry x="175" y="50" width="100" height="50" as="geometry" />
        </mxCell>
        <mxCell id="ruwKu6qkfZP39pcEH6fN-2" value="Temperature Sensor&lt;div&gt;(AHT20)&lt;/div&gt;" style="rounded=0;whiteSpace=wrap;html=1;" parent="VuKC-oQQ4Q0P8t1NDrwS-15" vertex="1">
          <mxGeometry x="35" y="50" width="100" height="50" as="geometry" />
        </mxCell>
        <mxCell id="ruwKu6qkfZP39pcEH6fN-4" value="Gas Sensor&lt;div&gt;(SGP40)&lt;/div&gt;" style="rounded=0;whiteSpace=wrap;html=1;" parent="VuKC-oQQ4Q0P8t1NDrwS-15" vertex="1">
          <mxGeometry x="35" y="130" width="100" height="50" as="geometry" />
        </mxCell>
        <mxCell id="VuKC-oQQ4Q0P8t1NDrwS-21" value="Power Usage" style="swimlane;whiteSpace=wrap;html=1;" parent="1" vertex="1">
          <mxGeometry y="1" width="225" height="270" as="geometry">
            <mxRectangle x="35" y="10" width="110" height="30" as="alternateBounds" />
          </mxGeometry>
        </mxCell>
        <mxCell id="ruwKu6qkfZP39pcEH6fN-13" value="Charger / Booster (Lipo Rider Plus)" style="rounded=0;whiteSpace=wrap;html=1;" parent="VuKC-oQQ4Q0P8t1NDrwS-21" vertex="1">
          <mxGeometry x="70" y="210" width="110" height="50" as="geometry" />
        </mxCell>
        <mxCell id="ruwKu6qkfZP39pcEH6fN-15" value="Solar Panel" style="rounded=0;whiteSpace=wrap;html=1;" parent="VuKC-oQQ4Q0P8t1NDrwS-21" vertex="1">
          <mxGeometry x="55" y="110" width="90" height="40" as="geometry" />
        </mxCell>
        <mxCell id="ruwKu6qkfZP39pcEH6fN-21" style="edgeStyle=orthogonalEdgeStyle;rounded=0;orthogonalLoop=1;jettySize=auto;html=1;" parent="VuKC-oQQ4Q0P8t1NDrwS-21" source="ruwKu6qkfZP39pcEH6fN-15" target="ruwKu6qkfZP39pcEH6fN-13" edge="1">
          <mxGeometry relative="1" as="geometry" />
        </mxCell>
        <mxCell id="ruwKu6qkfZP39pcEH6fN-16" value="Li-Po Battery" style="rounded=0;whiteSpace=wrap;html=1;" parent="VuKC-oQQ4Q0P8t1NDrwS-21" vertex="1">
          <mxGeometry x="55" y="40" width="90" height="40" as="geometry" />
        </mxCell>
        <mxCell id="ruwKu6qkfZP39pcEH6fN-22" style="edgeStyle=orthogonalEdgeStyle;rounded=0;orthogonalLoop=1;jettySize=auto;html=1;entryX=0.545;entryY=0;entryDx=0;entryDy=0;entryPerimeter=0;endArrow=none;startFill=0;" parent="VuKC-oQQ4Q0P8t1NDrwS-21" source="ruwKu6qkfZP39pcEH6fN-16" target="ruwKu6qkfZP39pcEH6fN-13" edge="1">
          <mxGeometry relative="1" as="geometry">
            <Array as="points">
              <mxPoint x="170" y="60" />
              <mxPoint x="170" y="180" />
              <mxPoint x="125" y="180" />
              <mxPoint x="125" y="210" />
            </Array>
          </mxGeometry>
        </mxCell>
      </root>
    </mxGraphModel>
  </diagram>
</mxfile>
